<?xml version="1.0" encoding="UTF-8"?>
<svg id="Layer_2" data-name="Layer 2" xmlns="http://www.w3.org/2000/svg" viewBox="0 0 240 49.64">
  <defs>
    <style>
      .cls-1 {
        fill: #e01a4f;
      }

      .cls-1, .cls-2 {
        stroke-width: 0px;
      }

      .cls-3 {
        stroke: #fff;
        stroke-miterlimit: 10;
        stroke-width: .7px;
      }

      .cls-3, .cls-2 {
        fill: #fff;
      }

      .cls-4 {
        opacity: .96;
      }
    </style>
  </defs>
  <g id="Layer_1-2" data-name="Layer 1">
    <g>
      <g class="cls-4">
        <path class="cls-3" d="M85.49,35.88l6.32-15.24s.03-.04.06-.04h2.51s.05.01.06.04l6.32,15.24s-.01.08-.06.08h-2.41s-.05-.02-.06-.04l-1.2-3.12s-.03-.04-.06-.04h-7.71s-.05.02-.06.04l-1.2,3.12s-.03.04-.06.04h-2.41s-.07-.04-.06-.08ZM96.27,30.7l-3.09-7.31s-.09-.05-.11,0l-3.09,7.31s.01.08.06.08h6.18s.07-.04.06-.08Z"/>
        <path class="cls-3" d="M102.64,35.9v-10.56c0-.13.1-.23.23-.23h1.85c.1,0,.18.08.18.17v.98c0,.06.08.09.12.04.45-.57,1.46-1.43,3.23-1.43,3,0,4.58,1.86,4.58,4.49v6.53s-.03.07-.07.07h-2.11s-.07-.03-.07-.07v-6.05c0-1.8-.99-2.84-2.68-2.84s-3.01,1.04-3.01,2.84v6.05s-.03.07-.07.07h-2.11s-.07-.03-.07-.07Z"/>
        <path class="cls-3" d="M120.83,24.88c1.82,0,3.03.65,3.84,1.65.02.02.04,0,.04-.02v-6.46s.01-.03.03-.03h2.2s.03.01.03.03v15.88s-.01.03-.03.03h-2.2s-.03-.01-.03-.03v-1.39s-.03-.03-.04-.02c-.81,1-2.02,1.65-3.84,1.65-3.1,0-5.48-2.38-5.48-5.71s2.37-5.6,5.48-5.6ZM117.6,30.48c0,2,1.4,3.7,3.5,3.7s3.6-1.7,3.6-3.7-1.51-3.59-3.6-3.59-3.5,1.58-3.5,3.59Z"/>
        <path class="cls-3" d="M130.42,35.92v-10.78s.02-.04.04-.04h2.18s.04.02.04.04v1.28s.05.05.08.02c.62-1.09,1.62-1.57,2.76-1.57.75,0,1.34.21,1.47.26.02,0,.03.02.02.04l-.23,1.98s-.03.04-.06.03c-.18-.07-.64-.23-1.28-.23-1.2,0-2.77.63-2.77,3.09v5.88s-.02.04-.04.04h-2.18s-.04-.02-.04-.04Z"/>
        <path class="cls-3" d="M137.92,30.53c0-3.18,2.48-5.66,5.79-5.66s5.79,2.48,5.79,5.66-2.48,5.66-5.79,5.66-5.79-2.48-5.79-5.66ZM143.71,34.09c2.06,0,3.55-1.55,3.55-3.55s-1.49-3.55-3.55-3.55-3.55,1.55-3.55,3.55,1.49,3.55,3.55,3.55Z"/>
        <path class="cls-3" d="M153.05,20.09c1.01-.12,1.73.58,1.61,1.59-.07.59-.55,1.07-1.15,1.15-1.02.13-1.73-.57-1.61-1.58.07-.59.55-1.08,1.15-1.15ZM152.16,35.94v-10.82s.01-.02.02-.02h2.2s.02.01.02.02v10.82s-.01.02-.02.02h-2.2s-.02-.01-.02-.02Z"/>
        <path class="cls-3" d="M162.55,24.88c1.81,0,3.02.65,3.83,1.64.02.02.06.01.06-.02v-6.43s.01-.03.03-.03h2.18s.03.01.03.03v15.87s-.01.03-.03.03h-2.18s-.03-.01-.03-.03v-1.36s-.04-.04-.06-.02c-.81.99-2.02,1.64-3.83,1.64-3.1,0-5.48-2.38-5.48-5.71s2.37-5.6,5.48-5.6ZM159.33,30.48c0,2,1.4,3.7,3.5,3.7s3.6-1.7,3.6-3.7-1.51-3.59-3.6-3.59-3.5,1.58-3.5,3.59Z"/>
      </g>
      <g>
        <path class="cls-2" d="M179.59,36.1v-15.19s.04-.09.09-.09h6.2c2.95,0,4.87,1.77,4.87,4.44s-1.92,4.39-4.87,4.39h-4.84c-.05,0-.09.04-.09.09v6.36s-.04.09-.09.09h-1.18c-.05,0-.09-.04-.09-.09ZM180.95,28.34s.04.09.09.09h4.77c2.33,0,3.55-1.26,3.55-3.17s-1.22-3.21-3.55-3.21h-4.77c-.05,0-.09.04-.09.09v6.2Z"/>
        <path class="cls-2" d="M192.4,30.76c0-3.18,2.48-5.66,5.79-5.66s5.79,2.48,5.79,5.66-2.48,5.66-5.79,5.66-5.79-2.48-5.79-5.66ZM198.2,35.18c2.53,0,4.43-1.93,4.43-4.41s-1.9-4.41-4.43-4.41-4.43,1.93-4.43,4.41,1.9,4.41,4.43,4.41Z"/>
        <path class="cls-2" d="M207.06,20.26h1.23s.07.03.07.07v15.8s-.03.07-.07.07h-1.23s-.07-.03-.07-.07v-15.8s.03-.07.07-.07Z"/>
        <path class="cls-2" d="M212.89,20.84c.45.02.78.33.81.77.04.51-.41.95-.92.92-.45-.02-.77-.34-.79-.79-.03-.5.4-.93.9-.9ZM213.53,25.39v10.75s-.02.06-.06.06h-1.25s-.06-.02-.06-.06v-10.75s.02-.06.06-.06h1.25s.06.02.06.06Z"/>
        <path class="cls-2" d="M216.52,30.76c0-3.2,2.55-5.66,5.9-5.66,1.99,0,3.76.96,4.73,2.63.03.05.01.11-.03.14l-.89.57s-.11.02-.14-.03c-.82-1.25-2.18-2.05-3.67-2.05-2.6,0-4.52,1.92-4.52,4.4s1.86,4.42,4.42,4.42c1.54,0,2.94-.84,3.74-2.05.03-.05.09-.06.14-.03l.9.56s.06.09.03.14c-.95,1.57-2.81,2.61-4.81,2.61-3.32,0-5.79-2.49-5.79-5.66Z"/>
        <path class="cls-2" d="M234.72,25.1c3.31,0,5.27,2.29,5.28,5.06,0,.28-.02.56-.06.85,0,.05-.05.09-.11.09h-9.22c-.06,0-.11.05-.11.12.22,2.38,2.11,3.96,4.35,3.96,1.51,0,2.87-.68,3.77-1.81.04-.04.1-.05.14-.02l.85.61s.06.1.03.15c-1.09,1.55-2.94,2.31-4.8,2.31-3.34,0-5.74-2.5-5.74-5.66s2.42-5.66,5.61-5.66ZM230.7,29.95h7.85c.06,0,.11-.05.11-.11-.16-2.08-1.86-3.48-3.94-3.48s-3.91,1.4-4.13,3.48c0,.06.04.12.11.12Z"/>
      </g>
      <g>
        <path class="cls-1" d="M26.11,32.8l4.38,7.64H2.02c-1.55,0-2.52-1.67-1.75-3.01L21.24.98c.74-1.3,2.62-1.3,3.37-.01l21.49,36.76c.71,1.21-.17,2.72-1.57,2.72l-7.64-.06-13.93-24.99-9.93,17.33,13.09.07Z"/>
        <path class="cls-2" d="M63.83,29.02l4.48,7.58,14.16-24.59c.77-1.34-.2-3.01-1.75-3.01l-42.19-.02c-1.5,0-2.44,1.61-1.69,2.91l21.34,36.85c.7,1.21,2.46,1.21,3.16,0l3.75-6.63-14.84-24.46,20.03.04-6.44,11.35Z"/>
      </g>
      <text/>
    </g>
  </g>
</svg>